<svg xmlns="http://www.w3.org/2000/svg" xmlns:xlink="http://www.w3.org/1999/xlink" width="19.784" height="23.995" viewBox="0 0 19.784 23.995">
  <defs>
    <linearGradient id="linear-gradient" x1="0.273" x2="0.284" y2="1" gradientUnits="objectBoundingBox">
      <stop offset="0" stop-color="#ff898b" stop-opacity="0.251"/>
      <stop offset="1" stop-color="#ff898b"/>
    </linearGradient>
  </defs>
  <g id="icon_doctor" transform="translate(0)">
    <g id="Group_4462" data-name="Group 4462" transform="translate(0 0)">
      <g id="Group_4461" data-name="Group 4461">
        <path id="Path_3217" data-name="Path 3217" d="M138.566,121.178v.759a2.826,2.826,0,0,0,5.652,0v-.759a5.672,5.672,0,0,0,2.826-4.886v-2.823H135.739v2.823A5.672,5.672,0,0,0,138.566,121.178Zm8.479-14.061a2.121,2.121,0,0,0-2.12-2.117h-7.066a2.121,2.121,0,0,0-2.12,2.117v4.94h11.305v-4.94Zm-4.239,2.823H142.1v.706a.707.707,0,0,1-1.413,0v-.706h-.707a.706.706,0,1,1,0-1.411h.707v-.706a.707.707,0,0,1,1.413,0v.706h.707a.706.706,0,1,1,0,1.411Zm-1.413,16.232a4.239,4.239,0,0,1-4.162-3.471l-.077.031v6.263h8.479v-6.263l-.077-.031A4.239,4.239,0,0,1,141.392,126.172Zm6.82-2.405-1.167-.468v5.7h3.533a.706.706,0,0,0,.707-.706A4.858,4.858,0,0,0,148.212,123.767ZM131.5,128.289a.706.706,0,0,0,.707.706h3.533v-5.7l-1.168.468A4.858,4.858,0,0,0,131.5,128.289Z" transform="translate(-131.5 -105)" fill="url(#linear-gradient)"/>
      </g>
    </g>
  </g>
</svg>
