<svg xmlns="http://www.w3.org/2000/svg" xmlns:xlink="http://www.w3.org/1999/xlink" width="23.46" height="23.464" viewBox="0 0 23.46 23.464">
  <defs>
    <linearGradient id="linear-gradient" x1="0.5" x2="0.5" y2="1" gradientUnits="objectBoundingBox">
      <stop offset="0" stop-color="#ff898b" stop-opacity="0.251"/>
      <stop offset="1" stop-color="#ff898b"/>
    </linearGradient>
  </defs>
  <g id="searching" transform="translate(288.108 -8.16)">
    <g id="Group_4456" data-name="Group 4456" transform="translate(-288.108 8.16)">
      <g id="Group_4455" data-name="Group 4455" transform="translate(0)">
        <path id="Path_3215" data-name="Path 3215" d="M120.185,105a8.269,8.269,0,0,0-6.314,13.618l-1.549,1.549-.488-.488a.689.689,0,0,0-.975,0l-5.655,5.656a.69.69,0,0,0,0,.975l1.951,1.951a.689.689,0,0,0,.975,0l5.655-5.656a.69.69,0,0,0,0-.975l-.488-.488,1.549-1.549A8.274,8.274,0,1,0,120.185,105Zm0,13.8a5.519,5.519,0,1,1,5.518-5.519A5.524,5.524,0,0,1,120.185,118.8Zm0-9.658a4.139,4.139,0,1,0,4.138,4.139A4.143,4.143,0,0,0,120.185,109.139Z" transform="translate(-105.002 -105)" fill="url(#linear-gradient)"/>
      </g>
    </g>
  </g>
</svg>
