<svg xmlns="http://www.w3.org/2000/svg" xmlns:xlink="http://www.w3.org/1999/xlink" width="24.593" height="23.147" viewBox="0 0 24.593 23.147">
  <defs>
    <linearGradient id="linear-gradient" x1="0.5" x2="0.5" y2="1" gradientUnits="objectBoundingBox">
      <stop offset="0" stop-color="#ff898b" stop-opacity="0.251"/>
      <stop offset="1" stop-color="#ff898b"/>
    </linearGradient>
  </defs>
  <g id="icon_co_so" transform="translate(0 0)">
    <g id="Group_4458" data-name="Group 4458">
      <path id="Path_3216" data-name="Path 3216" d="M122.36,114H112.233a.723.723,0,0,0-.723.723v22.423h3.617v-5.063a.723.723,0,0,1,.723-.723h2.893a.723.723,0,0,1,.723.723v5.063h3.617V114.723A.723.723,0,0,0,122.36,114Zm-6.51,15.913H114.4a.723.723,0,1,1,0-1.447h1.447a.723.723,0,1,1,0,1.447Zm0-2.893H114.4a.723.723,0,1,1,0-1.447h1.447a.723.723,0,1,1,0,1.447Zm0-2.893H114.4a.723.723,0,1,1,0-1.447h1.447a.723.723,0,1,1,0,1.447Zm1.447-2.893a.723.723,0,0,1-.723-.723v-.723h-.723a.723.723,0,0,1,0-1.447h.723v-.723a.723.723,0,1,1,1.447,0v.723h.723a.723.723,0,0,1,0,1.447h-.723v.723A.723.723,0,0,1,117.3,121.233Zm2.893,8.68h-1.447a.723.723,0,0,1,0-1.447h1.447a.723.723,0,0,1,0,1.447Zm0-2.893h-1.447a.723.723,0,1,1,0-1.447h1.447a.723.723,0,1,1,0,1.447Zm0-2.893h-1.447a.723.723,0,1,1,0-1.447h1.447a.723.723,0,1,1,0,1.447Zm-3.617,13.02h1.447v-4.34h-1.447Zm11.573-10.127h1.447v-2.17a.723.723,0,0,0-.723-.723h-1.447v-2.17a.723.723,0,0,0-.723-.723h-2.17v15.913h4.34a.723.723,0,0,0,.723-.723v-2.17h-1.447a.723.723,0,0,1,0-1.447h1.447V131.36h-1.447a.723.723,0,1,1,0-1.447h1.447v-1.447h-1.447a.723.723,0,0,1,0-1.447Zm-20.977-5.063v2.17h-1.447a.723.723,0,0,0-.723.723v2.17h1.447a.723.723,0,0,1,0,1.447H105v1.447h1.447a.723.723,0,1,1,0,1.447H105v1.447h1.447a.723.723,0,0,1,0,1.447H105v2.17a.723.723,0,0,0,.723.723h4.34V121.233h-2.17A.723.723,0,0,0,107.17,121.957Z" transform="translate(-105 -114)" fill="url(#linear-gradient)"/>
    </g>
  </g>
</svg>
