<svg xmlns="http://www.w3.org/2000/svg" width="175.968" height="28.031" viewBox="0 0 175.968 28.031">
  <g id="logo-new" transform="translate(-0.002 -0.005)">
    <path id="Path_2630" data-name="Path 2630" d="M66.343,119.765c1.011.1,1.631.584,1.684,3.621a34.884,34.884,0,0,0,2.168,10c1.053,2.69,1.846,3.627,2.927,3.685s2.153-3.995,2.884-5.289c.874-1.547,2.884-2.927,4.632.595s2.2,5.116,3.016,5.2c1.232.126,1.621-2.769,2.632-3.2a1.837,1.837,0,0,1,2.179,2.679c-1.011,2.105-2.184,4.137-4.989,4.137-2.368,0-4.079-4.116-4.406-4.953s-1.053-2.105-1.637-.095-2.321,5.264-4.211,5.264c-2.732,0-4.479-1.674-6.505-6.958a32.2,32.2,0,0,1-2.548-10.527C63.849,120.618,65.127,119.649,66.343,119.765Z" transform="translate(-64.118 -113.555)" fill="#ff898b"/>
    <path id="Path_2631" data-name="Path 2631" d="M87.735,57.057a2.058,2.058,0,0,0,2.9,0c1.053-1.053,1.99-2.027,4.311.137s4.116,3.863,7.106,4.091,3.937-.663,3.911-1.716-.858-1.942-2.994-1.784c1.379-1.416,3.526-2.958,6.179-.748s.411,8.058-.258,9.837-1.579,4.632.368,5.264c2.432.768,3.5-2.711,3.947-5.942.295-2.137,1.805-9.7-2.632-12.369-3.995-2.395-6.842-1.284-8.737.289-2.105,1.737-2.19,2.263-2.19,2.263a12.743,12.743,0,0,1-3.263-2.321c-1.646-1.579-4.374-2.832-7.058-1.053C86.55,54.762,87.134,56.524,87.735,57.057Z" transform="translate(-85.115 -52.13)" fill="#614379"/>
    <g id="Group_4444" data-name="Group 4444">
      <path id="Path_2632" data-name="Path 2632" d="M678.984,197.133v-15.6h5.5l4.848,8.163a17.584,17.584,0,0,1-.179-2.932v-5.232h5.411v15.6h-5.538l-4.8-8.1a14.046,14.046,0,0,1,.174,2.469v5.626Z" transform="translate(-622.63 -169.67)" fill="#614379"/>
      <path id="Path_2633" data-name="Path 2633" d="M880.158,197.133v-15.6h5.605v5.189H889.2v-5.189H894.8v15.6h-5.6v-5.494h-3.432v5.494Z" transform="translate(-805.366 -169.67)" fill="#614379"/>
      <path id="Path_2634" data-name="Path 2634" d="M1049.46,197.132l5.558-15.6h6.247l5.453,15.6H1060.7l-.526-1.958h-4.211l-.484,1.958Zm7.437-5.669h2.342l-.489-1.769a16.35,16.35,0,0,1-.626-3.432h-.105a16.142,16.142,0,0,1-.637,3.432Z" transform="translate(-959.151 -169.669)" fill="#614379"/>
      <path id="Path_2635" data-name="Path 2635" d="M1247.19,197.133v-15.6h5.5v6.653l3.558-6.653h6.353l-4.711,7.683,5.358,7.895h-6.785l-3.774-6.521v6.543Z" transform="translate(-1138.758 -169.67)" fill="#614379"/>
      <path id="Path_2636" data-name="Path 2636" d="M1429.07,197.133v-15.6h5.6v5.189h3.427v-5.189h5.6v15.6H1438.1v-5.494h-3.425v5.494Z" transform="translate(-1303.968 -169.67)" fill="#614379"/>
      <path id="Path_2637" data-name="Path 2637" d="M1631.614,186.233a8.022,8.022,0,0,1-.616,3.19,8.257,8.257,0,0,1-1.769,2.632,8.721,8.721,0,0,1-11.937,0,8.345,8.345,0,0,1,.021-11.637,8.785,8.785,0,0,1,11.924,0A7.864,7.864,0,0,1,1631.614,186.233Zm-8.364,2.944a2.427,2.427,0,0,0,1.974-.874,3.159,3.159,0,0,0,.658-2.069,3.243,3.243,0,0,0-.649-2.105,2.427,2.427,0,0,0-1.984-.863,2.358,2.358,0,0,0-1.942.842,3.247,3.247,0,0,0-.689,2.105,3.19,3.19,0,0,0,.689,2.105,2.379,2.379,0,0,0,1.94.856Z" transform="translate(-1472.801 -166.538)" fill="#614379"/>
      <path id="Path_2638" data-name="Path 2638" d="M1795.75,197.132l5.563-15.6h6.242l5.458,15.6h-6.021l-.5-1.958h-4.263l-.479,1.958Zm7.437-5.669h2.345l-.495-1.769a16.706,16.706,0,0,1-.626-3.432h-.079a16.2,16.2,0,0,1-.642,3.432Z" transform="translate(-1637.044 -169.669)" fill="#614379"/>
    </g>
    <ellipse id="Ellipse_504" data-name="Ellipse 504" cx="2" cy="1.974" rx="2" ry="1.974" transform="translate(30.769 9.542)" fill="#ff898b"/>
    <ellipse id="Ellipse_505" data-name="Ellipse 505" cx="2" cy="1.974" rx="2" ry="1.974" transform="translate(47.349 9.542)" fill="#ff898b"/>
    <path id="Path_2639" data-name="Path 2639" d="M387.168,261.741c-1.09.242-1.511,1.526-1.547,4.048s.526,4.241,2.105,4.516a3.418,3.418,0,0,0,3.293-1.29,21.516,21.516,0,0,0,2.211-3.09v-.687s-1.774,2.216-2.426,2.863-1.631,1.184-1.921,1-.463-3.574-.105-5.153S388.4,261.467,387.168,261.741Z" transform="translate(-356.152 -242.483)" fill="#ff898b"/>
    <path id="Path_2640" data-name="Path 2640" d="M568.357,261.741c-1.09.242-1.511,1.526-1.547,4.048s.526,4.241,2.105,4.516a3.413,3.413,0,0,0,3.293-1.29,21.524,21.524,0,0,0,2.211-3.09v-.687s-1.8,2.216-2.469,2.863-1.616,1.168-1.905,1-.463-3.574-.105-5.153S569.6,261.467,568.357,261.741Z" transform="translate(-520.735 -242.483)" fill="#ff898b"/>
    <path id="Path_2641" data-name="Path 2641" d="M459.328,115.811c-.079,1.532.31,15.18.363,16s.642,1.932,1.337,1.932,1.337-.358.826-1.753a24.269,24.269,0,0,1-.284-9.19c.595-2.964,2.021-6.563,1.79-8.781s-2.4-2.632-3.158-2.032S459.476,113.354,459.328,115.811Z" transform="translate(-423.096 -106.276)" fill="#ff898b"/>
    <path id="Path_2642" data-name="Path 2642" d="M475.743,266.512a8.922,8.922,0,0,1,2.105-2.337c1.011-.605,2.974-.984,3.453.195s-.669,2.484-1.263,2.969c-.432.274-.526,1.321.653,2.263s2.574,1.337,3.811.411l.563.395a3.976,3.976,0,0,1-2.884,1.753c-2.186.395-3.5-.479-4.169-2.105S477.322,266.186,475.743,266.512Z" transform="translate(-438.016 -244.217)" fill="#ff898b"/>
  </g>
</svg>
